<svg xmlns="http://www.w3.org/2000/svg"  viewBox="0 0 100 100" width="100px" height="100px"><path fill="#fefdef" d="M28,54.5V19c0-2.761,2.239-5,5-5h34c2.761,0,5,2.239,5,5v35.5H28z"/><path fill="#eddc67" d="M75,42H60.5v0.5c0,3.794-4.809,7-10.5,7s-10.5-3.206-10.5-7V42H25c-2.209,0-4,1.791-4,4v32.667 C21,82.717,24.283,86,28.333,86h43.333C75.717,86,79,82.717,79,78.667V46C79,43.791,77.209,42,75,42z"/><path fill="#6693c1" d="M14.5,46.5h2c0.552,0,1,0.448,1,1v5c0,0.552-0.448,1-1,1h-2c-0.552,0-1-0.448-1-1v-5	C13.5,46.948,13.948,46.5,14.5,46.5z"/><path fill="#6693c1" d="M83.5,46.5h2c0.552,0,1,0.448,1,1v5c0,0.552-0.448,1-1,1h-2c-0.552,0-1-0.448-1-1v-5	C82.5,46.948,82.948,46.5,83.5,46.5z"/><path fill="#4e6e91" d="M17.5,47.5h3v5h-3V47.5z"/><path fill="#4e6e91" d="M79.5,47.5h3v5h-3V47.5z"/><path fill="#6693c1" d="M72.5,76.5c0,2.209-1.791,4-4,4h-37c-2.209,0-4-1.791-4-4v-14c0-2.209,1.791-4,4-4h37 c2.209,0,4,1.791,4,4V76.5z"/><path fill="#9dc4e8" d="M72.5,64v-1.5c0-2.209-1.791-4-4-4h-37c-2.209,0-4,1.791-4,4V64H72.5z"/><circle cx="32.5" cy="68.5" r="2" fill="#fefdef"/><circle cx="39.5" cy="68.5" r="2" fill="#fefdef"/><circle cx="46.5" cy="68.5" r="2" fill="#fefdef"/><circle cx="53.5" cy="68.5" r="2" fill="#fefdef"/><circle cx="60.5" cy="68.5" r="2" fill="#fefdef"/><circle cx="67.5" cy="68.5" r="2" fill="#fefdef"/><circle cx="32.5" cy="75.5" r="2" fill="#fefdef"/><circle cx="67.5" cy="75.5" r="2" fill="#fefdef"/><path fill="#fefdef" d="M60.5,73.5c-0.893,0-20.629,0-21,0c-1.104,0-2,0.896-2,2s0.896,2,2,2c0.371,0,20.107,0,21,0 c1.104,0,2-0.896,2-2S61.604,73.5,60.5,73.5z"/><path fill="#6693c1" d="M74.5,42.5h-14c0,3.794-4.809,7-10.5,7s-10.5-3.206-10.5-7h-14v1c0,2.208,1.749,4,3.957,4h6.47 c2.455,4.124,7.832,7,14.072,7s11.617-2.876,14.072-7h6.47c2.208,0,3.957-1.792,3.957-4v-1H74.5z"/><path fill="#1f212b" d="M16.5,54h-2c-0.827,0-1.5-0.673-1.5-1.5v-5c0-0.827,0.673-1.5,1.5-1.5h2c0.827,0,1.5,0.673,1.5,1.5 v5C18,53.327,17.327,54,16.5,54z M14.5,47c-0.275,0-0.5,0.225-0.5,0.5v5c0,0.275,0.225,0.5,0.5,0.5h2c0.275,0,0.5-0.225,0.5-0.5 v-5c0-0.275-0.225-0.5-0.5-0.5H14.5z"/><path fill="#1f212b" d="M85.5,54h-2c-0.827,0-1.5-0.673-1.5-1.5v-5c0-0.827,0.673-1.5,1.5-1.5h2c0.827,0,1.5,0.673,1.5,1.5 v5C87,53.327,86.327,54,85.5,54z M83.5,47c-0.275,0-0.5,0.225-0.5,0.5v5c0,0.275,0.225,0.5,0.5,0.5h2c0.275,0,0.5-0.225,0.5-0.5 v-5c0-0.275-0.225-0.5-0.5-0.5H83.5z"/><path fill="#1f212b" d="M20.5,53h-3c-0.276,0-0.5-0.224-0.5-0.5v-5c0-0.276,0.224-0.5,0.5-0.5h3c0.276,0,0.5,0.224,0.5,0.5 v5C21,52.776,20.776,53,20.5,53z M18,52h2v-4h-2V52z"/><path fill="#1f212b" d="M82.5,53h-3c-0.276,0-0.5-0.224-0.5-0.5v-5c0-0.276,0.224-0.5,0.5-0.5h3c0.276,0,0.5,0.224,0.5,0.5 v5C83,52.776,82.776,53,82.5,53z M80,52h2v-4h-2V52z"/><path fill="#1f212b" d="M71.667,87H28.333C23.738,87,20,83.262,20,78.667V46c0-2.757,2.243-5,5-5h2v2h-2 c-1.654,0-3,1.346-3,3v32.667C22,82.159,24.841,85,28.333,85h43.334C75.159,85,78,82.159,78,78.667V46c0-1.654-1.346-3-3-3h-2v-2 h2c2.757,0,5,2.243,5,5v32.667C80,83.262,76.262,87,71.667,87z"/><path fill="#1f212b" d="M68.5,81h-37c-2.481,0-4.5-2.019-4.5-4.5v-14c0-2.481,2.019-4.5,4.5-4.5h37 c2.481,0,4.5,2.019,4.5,4.5v14C73,78.981,70.981,81,68.5,81z M31.5,59c-1.93,0-3.5,1.57-3.5,3.5v14c0,1.93,1.57,3.5,3.5,3.5h37 c1.93,0,3.5-1.57,3.5-3.5v-14c0-1.93-1.57-3.5-3.5-3.5H31.5z"/><path fill="#1f212b" d="M32.5,71c-1.379,0-2.5-1.121-2.5-2.5s1.121-2.5,2.5-2.5c1.379,0,2.5,1.121,2.5,2.5 S33.879,71,32.5,71z M32.5,67c-0.827,0-1.5,0.673-1.5,1.5s0.673,1.5,1.5,1.5s1.5-0.673,1.5-1.5S33.327,67,32.5,67z"/><path fill="#1f212b" d="M39.5,71c-1.379,0-2.5-1.121-2.5-2.5s1.121-2.5,2.5-2.5s2.5,1.121,2.5,2.5S40.879,71,39.5,71z M39.5,67c-0.827,0-1.5,0.673-1.5,1.5s0.673,1.5,1.5,1.5s1.5-0.673,1.5-1.5S40.327,67,39.5,67z"/><path fill="#1f212b" d="M46.5,71c-1.379,0-2.5-1.121-2.5-2.5s1.121-2.5,2.5-2.5s2.5,1.121,2.5,2.5S47.879,71,46.5,71z M46.5,67c-0.827,0-1.5,0.673-1.5,1.5s0.673,1.5,1.5,1.5s1.5-0.673,1.5-1.5S47.327,67,46.5,67z"/><path fill="#1f212b" d="M53.5,71c-1.379,0-2.5-1.121-2.5-2.5s1.121-2.5,2.5-2.5s2.5,1.121,2.5,2.5S54.879,71,53.5,71z M53.5,67c-0.827,0-1.5,0.673-1.5,1.5s0.673,1.5,1.5,1.5s1.5-0.673,1.5-1.5S54.327,67,53.5,67z"/><path fill="#1f212b" d="M60.5,71c-1.379,0-2.5-1.121-2.5-2.5s1.121-2.5,2.5-2.5s2.5,1.121,2.5,2.5S61.879,71,60.5,71z M60.5,67c-0.827,0-1.5,0.673-1.5,1.5s0.673,1.5,1.5,1.5s1.5-0.673,1.5-1.5S61.327,67,60.5,67z"/><path fill="#1f212b" d="M67.5,71c-1.379,0-2.5-1.121-2.5-2.5s1.121-2.5,2.5-2.5s2.5,1.121,2.5,2.5S68.879,71,67.5,71z M67.5,67c-0.827,0-1.5,0.673-1.5,1.5s0.673,1.5,1.5,1.5s1.5-0.673,1.5-1.5S68.327,67,67.5,67z"/><path fill="#1f212b" d="M32.5,78c-1.379,0-2.5-1.121-2.5-2.5s1.121-2.5,2.5-2.5c1.379,0,2.5,1.121,2.5,2.5 S33.879,78,32.5,78z M32.5,74c-0.827,0-1.5,0.673-1.5,1.5s0.673,1.5,1.5,1.5s1.5-0.673,1.5-1.5S33.327,74,32.5,74z"/><path fill="#1f212b" d="M60.5,78h-21c-1.379,0-2.5-1.121-2.5-2.5s1.121-2.5,2.5-2.5h21c1.379,0,2.5,1.121,2.5,2.5 S61.879,78,60.5,78z M39.5,74c-0.827,0-1.5,0.673-1.5,1.5s0.673,1.5,1.5,1.5h21c0.827,0,1.5-0.673,1.5-1.5S61.327,74,60.5,74H39.5 z"/><path fill="#1f212b" d="M67.5,78c-1.379,0-2.5-1.121-2.5-2.5s1.121-2.5,2.5-2.5s2.5,1.121,2.5,2.5S68.879,78,67.5,78z M67.5,74c-0.827,0-1.5,0.673-1.5,1.5s0.673,1.5,1.5,1.5s1.5-0.673,1.5-1.5S68.327,74,67.5,74z"/><path fill="#1f212b" d="M73,42h-2V19c0-2.206-1.794-4-4-4H33c-2.206,0-4,1.794-4,4v23h-2V19c0-3.309,2.691-6,6-6h34 c3.309,0,6,2.691,6,6V42z"/><path fill="#1f212b" d="M50,55c-6.074,0-11.67-2.738-14.353-7h-6.19C26.999,48,25,45.981,25,43.5v-1 c0-0.276,0.224-0.5,0.5-0.5h14c0.276,0,0.5,0.224,0.5,0.5c0,3.523,4.579,6.5,10,6.5s10-2.977,10-6.5c0-0.276,0.224-0.5,0.5-0.5h14 c0.276,0,0.5,0.224,0.5,0.5v1c0,2.481-1.999,4.5-4.457,4.5h-6.19C61.67,52.262,56.074,55,50,55z M26,43v0.5 c0,1.93,1.551,3.5,3.457,3.5h6.471c0.176,0,0.34,0.093,0.43,0.244C38.801,51.349,44.155,54,50,54s11.199-2.651,13.643-6.756 c0.09-0.151,0.254-0.244,0.43-0.244h6.471C72.449,47,74,45.43,74,43.5V43H60.975c-0.392,3.843-5.258,7-10.975,7 s-10.583-3.157-10.975-7H26z"/><path fill="#1f212b" d="M58.5,64h-28c-0.276,0-0.5-0.224-0.5-0.5s0.224-0.5,0.5-0.5h28c0.276,0,0.5,0.224,0.5,0.5 S58.776,64,58.5,64z"/><path fill="#1f212b" d="M66.5,64h-3c-0.276,0-0.5-0.224-0.5-0.5s0.224-0.5,0.5-0.5h3c0.276,0,0.5,0.224,0.5,0.5 S66.776,64,66.5,64z"/><path fill="#1f212b" d="M69.5,64h-1c-0.276,0-0.5-0.224-0.5-0.5s0.224-0.5,0.5-0.5h1c0.276,0,0.5,0.224,0.5,0.5 S69.776,64,69.5,64z"/><g><path fill="#1f212b" d="M41.5,22h-6c-0.276,0-0.5-0.224-0.5-0.5s0.224-0.5,0.5-0.5h6c0.276,0,0.5,0.224,0.5,0.5 S41.777,22,41.5,22z M63.5,22H44.624c-0.276,0-0.5-0.224-0.5-0.5s0.224-0.5,0.5-0.5H63.5c0.276,0,0.5,0.224,0.5,0.5 S63.777,22,63.5,22z M59.5,29H48.624c-0.276,0-0.5-0.224-0.5-0.5s0.224-0.5,0.5-0.5H59.5c0.276,0,0.5,0.224,0.5,0.5 S59.777,29,59.5,29z M64.5,29h-2.876c-0.276,0-0.5-0.224-0.5-0.5s0.224-0.5,0.5-0.5H64.5c0.276,0,0.5,0.224,0.5,0.5 S64.777,29,64.5,29z M45.5,29h-10c-0.276,0-0.5-0.224-0.5-0.5s0.224-0.5,0.5-0.5h10c0.276,0,0.5,0.224,0.5,0.5S45.777,29,45.5,29z M63.5,36h-8.876c-0.276,0-0.5-0.224-0.5-0.5s0.224-0.5,0.5-0.5H63.5c0.276,0,0.5,0.224,0.5,0.5S63.777,36,63.5,36z M52.5,36h-17 c-0.276,0-0.5-0.224-0.5-0.5s0.224-0.5,0.5-0.5h17c0.276,0,0.5,0.224,0.5,0.5S52.777,36,52.5,36z"/></g></svg>