<svg xmlns="http://www.w3.org/2000/svg" width="64" height="64" viewBox="0 0 64 64"><path fill="#ced8ed" d="M56,17H8V9c0-1.105,0.895-2,2-2h44c1.105,0,2,0.895,2,2V17z"/><path fill="#faefde" d="M56 27L8 27 8 57 56 57z"/><path fill="#ed7899" d="M56.015,17l3.824,11.235c0.196,0.588,0.222,1.227,0.027,1.815C59.473,31.234,58.281,33,55.015,33 c-4,0-6-4-8-4s-2,4-7,4c-3.989,0-6.013-3.977-8.008-4c-1.994,0.023-4.019,4-8.008,4c-5,0-5-4-7-4s-4,4-8,4 c-3.266,0-4.458-1.766-4.851-2.95c-0.195-0.588-0.169-1.227,0.027-1.815L8,17H56.015z"/><path fill="#f283a5" d="M57.717 22L56.015 17 8 17 6.298 22z"/><path fill="#efd8be" d="M8,47h48v8c0,1.105-0.895,2-2,2H10c-1.105,0-2-0.895-2-2V47z"/><path fill="#ed7899" d="M13 10A2 2 0 1 0 13 14A2 2 0 1 0 13 10Z"/><path fill="#ffeb9b" d="M19 10A2 2 0 1 0 19 14A2 2 0 1 0 19 10Z"/><path fill="#72caaf" d="M25 10A2 2 0 1 0 25 14A2 2 0 1 0 25 10Z"/><path fill="#f9dd8f" d="M17,37h10c0.552,0,1,0.448,1,1v19H16V38C16,37.448,16.448,37,17,37z"/><path fill="#bbdef9" d="M37,37h10c0.552,0,1,0.448,1,1v8c0,0.552-0.448,1-1,1H37c-0.552,0-1-0.448-1-1v-8 C36,37.448,36.448,37,37,37z"/><path fill="none" stroke="#8d6c9f" stroke-linecap="round" stroke-linejoin="round" stroke-miterlimit="10" stroke-width="2" d="M56.015 17l3.824 11.235c.196.588.222 1.227.027 1.815C59.473 31.234 58.281 33 55.015 33c-4 0-6-4-8-4s-2 4-7 4c-3.989 0-6.013-3.977-8.008-4-1.994.023-4.019 4-8.008 4-5 0-5-4-7-4s-4 4-8 4c-3.266 0-4.458-1.766-4.851-2.95-.195-.588-.169-1.227.027-1.815L8 17M32 22L32 29M18.716 16.993L17 25M45.283 16.988L47 25M47 47H37c-.552 0-1-.448-1-1v-8c0-.552.448-1 1-1h10c.552 0 1 .448 1 1v8C48 46.552 47.552 47 47 47zM16 57V38c0-.552.448-1 1-1h10c.552 0 1 .448 1 1v19M12 51L12 53M24 46L24 48M32 51L32 53M37 51L37 53M42 51L42 53M47 51L47 53M52 51L52 53"/><path fill="none" stroke="#8d6c9f" stroke-linecap="round" stroke-linejoin="round" stroke-miterlimit="10" stroke-width="2" d="M56 17H8V9c0-1.105.895-2 2-2h44c1.105 0 2 .895 2 2V17zM56 33v22c0 1.105-.895 2-2 2H10c-1.105 0-2-.895-2-2V33M8 47L15.836 47M28 47L32 47M52 47L56 47"/></svg>